<?xml version="1.0" encoding="UTF-8"?>
<svg id="shape" xmlns="http://www.w3.org/2000/svg" version="1.1" viewBox="0 0 300 206.8">
  <defs>
    <style>
      .cls-1 {
        fill: #800808;
        stroke-width: 0px;
      }
    </style>
  </defs>
  <path class="cls-1" d="M300,75.2c0,18.6-15.1,33.6-33.6,33.6h-61.9c-7.5,0-14.5,3.8-18.7,10h0c-.5.8-.9,1.5-1.3,2.3l-40.2,68.8-.4.7c-9.6,15.9-30.3,21-46.2,11.4-4.2-2.5-7.8-5.9-10.5-10L11.6,90.1l-.9-1.2C-7.5,63.8-1.8,28.8,23.2,10.6,32.8,3.7,44.3,0,56.1,0c3.5,0,7,.3,10.4,1l1.1.2,204.7,40.9c16,2.9,27.7,16.8,27.7,33.1Z"/>
</svg>